<svg id="_64x64" data-name="64x64" xmlns="http://www.w3.org/2000/svg" viewBox="0 0 66 66"><defs><style>.cls-1{fill:#4b68fa}</style></defs><title>64x64</title><circle class="cls-1" cx="28.85" cy="52.69" r="1.88" transform="rotate(-17.66 28.863 52.709)"/><circle class="cls-1" cx="24.36" cy="38.6" r="1.88" transform="rotate(-17.66 24.364 38.594)"/><path class="cls-1" transform="rotate(162.34 26.674 45.851)" d="M26.23 39.23h.87v13.25h-.87z"/><circle class="cls-1" cx="3.81" cy="27.25" r="1.88" transform="rotate(-3.79 3.79 27.206)"/><circle class="cls-1" cx="10.8" cy="29.95" r="1.88" transform="rotate(-3.79 10.812 29.859)"/><circle class="cls-1" cx="5.01" cy="45.35" r="1.88" transform="rotate(-3.79 5.008 45.25)"/><path class="cls-1" transform="rotate(-3.79 4.381 36.756)" d="M4.01 28.23h.88v17.2h-.88z"/><circle class="cls-1" cx="16.26" cy="59.59" r="1.88" transform="rotate(-38.32 16.263 59.581)"/><path class="cls-1" transform="rotate(-38.32 10.961 52.885)" d="M10.53 44.29h.87v17.2h-.87z"/><circle class="cls-1" cx="39.44" cy="63.11" r="1.88" transform="rotate(-81.4 39.432 63.038)"/><path class="cls-1" transform="rotate(-81.36 27.861 61.352)" d="M27.42 50.63h.88v21.46h-.88z"/><circle class="cls-1" cx="12.2" cy="11.17" r="1.88" transform="rotate(-62.43 12.203 11.174)"/><path class="cls-1" transform="rotate(27.57 7.767 19.679)" d="M7.32 11.08h.88v17.2h-.88z"/><circle class="cls-1" cx="28.33" cy="2.89" r="1.88" transform="rotate(-27.17 28.32 2.88)"/><path class="cls-1" transform="rotate(62.83 19.785 7.272)" d="M19.35-1.33h.88v17.2h-.88z"/><circle class="cls-1" cx="45.88" cy="7.52" r="1.88" transform="rotate(-75.28 45.878 7.518)"/><circle class="cls-1" cx="55.09" cy="28.17" r="1.88" transform="rotate(-75.28 55.084 28.172)"/><path class="cls-1" transform="rotate(104.72 36.595 5.083)" d="M36.16-3.52h.87v17.2h-.87z"/><circle class="cls-1" cx="59.96" cy="18.96" r="1.88" transform="rotate(-50.9 59.955 18.959)"/><path class="cls-1" transform="rotate(129.1 52.508 12.908)" d="M52.07 4.31h.87v17.2h-.87z"/><circle class="cls-1" cx="62.19" cy="36.96" r="1.88" transform="rotate(-7.07 62.225 36.993)"/><path class="cls-1" transform="rotate(172.93 61.003 27.439)" d="M60.57 18.84h.88v17.2h-.88z"/><circle class="cls-1" cx="54.97" cy="53.6" r="1.88" transform="rotate(-66.58 54.961 53.602)"/><path class="cls-1" transform="rotate(23.42 58.37 45.768)" d="M57.93 37.17h.88v17.2h-.88z"/><path class="cls-1" transform="rotate(58.56 46.779 58.594)" d="M46.34 50h.88v17.2h-.88z"/><circle class="cls-1" cx="21.91" cy="13.42" r="1.88" transform="rotate(-77.05 21.906 13.418)"/><path class="cls-1" transform="rotate(-77.05 17.742 12.463)" d="M17.3 7.77h.87v9.38h-.87z"/><path class="cls-1" transform="rotate(52.73 12.642 20.462)" d="M12.2 9.83h.88v21.28h-.88z"/><circle class="cls-1" cx="40.43" cy="40.19" r="1.88" transform="rotate(-42.29 40.425 40.186)"/><circle class="cls-1" cx="44.16" cy="50.77" r="1.88" transform="rotate(-42.29 44.15 50.767)"/><circle class="cls-1" cx="52.73" cy="45.35" r="1.88" transform="rotate(-42.29 52.727 45.345)"/><path class="cls-1" transform="rotate(-5.48 23.143 26.239)" d="M22.7 14.35h.87v23.67h-.87z"/><path class="cls-1" transform="rotate(31.45 25.107 8.168)" d="M24.68 2.99h.87v10.36h-.87z"/><path class="cls-1" transform="rotate(-118.76 22.186 56.363)" d="M21.75 49.74h.87v13.25h-.87z"/><path class="cls-1" transform="rotate(134.71 34.328 58.019)" d="M33.89 51.4h.87v13.25h-.87z"/><path class="cls-1" transform="rotate(-72.97 16.984 49.03)" d="M16.55 37.5h.88v23.05h-.88z"/><path class="cls-1" transform="rotate(70.64 14.992 41.876)" d="M14.56 32.3h.87v19.16h-.87z"/><path class="cls-1" transform="rotate(-68.79 7.506 28.694)" d="M7.07 25.73h.88v5.93h-.88z"/><path class="cls-1" transform="rotate(76.22 33.952 10.415)" d="M33.51-.93h.87v22.69h-.87z"/><path class="cls-1" transform="rotate(-24.05 50.386 17.579)" d="M49.94 6.67h.87v21.82h-.87z"/><path class="cls-1" transform="rotate(140.92 58.85 32.72)" d="M58.41 27h.88v11.44h-.88z"/><path class="cls-1" transform="rotate(-152.77 57.699 23.327)" d="M57.26 18.42h.87v9.81h-.87z"/><path class="cls-1" transform="rotate(-57.38 17.49 34.231)" d="M17.05 27.3h.87v13.85h-.87z"/><circle class="cls-1" cx="38.49" cy="23.81" r="1.88" transform="rotate(-36.87 38.48 23.81)"/><path class="cls-1" transform="scale(-1) rotate(51 71.842 -99.54)" d="M47.17 25.89h.88v17.13h-.88z"/><path class="cls-1" transform="matrix(.94 .35 -.35 .94 13.79 -.38)" d="M7.49 30.45h.88v14.22h-.88z"/><path class="cls-1" transform="rotate(33.8 16.287 21.836)" d="M15.84 12.7h.88v18.27h-.88z"/><path class="cls-1" transform="rotate(-172.02 53.95 36.723)" d="M53.51 28.28h.88v16.89h-.88z"/><path class="cls-1" transform="rotate(-131.23 57.791 40.888)" d="M57.36 35.17h.87v11.44h-.87z"/><path class="cls-1" transform="rotate(-67.07 46.67 42.82)" d="M46.23 37.1h.87v11.44h-.87z"/><path class="cls-1" transform="rotate(-15 54.384 50.239)" d="M53.57 46.21h.87v7.57h-.87z"/><path class="cls-1" transform="rotate(122.05 30.075 18.529)" d="M29.64 8.84h.87v19.39h-.87z"/><path class="cls-1" transform="rotate(-136.34 31.229 31.42)" d="M30.79 21.73h.87v19.39h-.87z"/><path class="cls-1" transform="rotate(96.06 32.372 39.41)" d="M31.93 31.55h.88v15.71h-.88z"/><path class="cls-1" transform="rotate(-155.51 42.267 15.444)" d="M41.83 6.67h.88v17.54h-.88z"/><path class="cls-1" transform="rotate(104.63 46.757 25.996)" d="M46.32 17.39h.87v17.22h-.87z"/><path class="cls-1" transform="rotate(-6.65 39.494 32.173)" d="M39.07 24.16h.87v16.12h-.87z"/><path class="cls-1" transform="rotate(-19.46 42.494 45.918)" d="M42.04 40.86h.88v10.11h-.88z"/><path class="cls-1" transform="rotate(-136.83 34.598 46.468)" d="M34.16 38.73h.87V54.2h-.87z"/><path class="cls-1" transform="rotate(83.15 36.113 51.724)" d="M35.67 44.6h.87v14.26h-.87z"/><path class="cls-1" transform="rotate(57.94 48.079 48.31)" d="M47.64 43.79h.88v9.03h-.88z"/><path class="cls-1" transform="rotate(104.73 49.268 52.117)" d="M48.83 46.96h.88v10.31h-.88z"/><path class="cls-1" transform="rotate(-158.77 41.746 57.218)" d="M41.31 50.52h.88v13.39h-.88z"/></svg>