<?xml version="1.0" encoding="utf-8"?>
<!-- Generator: Adobe Illustrator 18.1.1, SVG Export Plug-In . SVG Version: 6.00 Build 0)  -->
<!DOCTYPE svg PUBLIC "-//W3C//DTD SVG 1.1//EN" "http://www.w3.org/Graphics/SVG/1.1/DTD/svg11.dtd">
<svg version="1.1" id="Layer_1" xmlns="http://www.w3.org/2000/svg" xmlns:xlink="http://www.w3.org/1999/xlink" x="0px" y="0px"
	 viewBox="0 0 24 24" enable-background="new 0 0 24 24" xml:space="preserve">
<g>
	<g>
		<path fill="#3B4B54" d="M16.6,19.1H7c-0.5,0-1-0.4-1-1v-16c0-0.5,0.4-1,1-1h9.6c0.5,0,1,0.4,1,1v16C17.6,18.6,17.2,19.1,16.6,19.1
			z"/>
		<path fill="#DCF5FF" d="M15.4,16.7H8.3c-0.6,0-1-0.5-1-1V3.5c0-0.6,0.5-1,1-1h7.1c0.6,0,1,0.5,1,1v12.1
			C16.4,16.2,15.9,16.7,15.4,16.7z"/>
		<circle fill="#DCF5FF" cx="11.8" cy="17.9" r="0.6"/>
	</g>
	<polygon opacity="0.19" fill="#474747" points="6,1.3 14.5,5.5 14.5,19.1 6,18.8 	"/>
	<polygon fill="#F47D64" points="6,1.3 10,5.5 10,23 6,18.8 	"/>
</g>
</svg>
